<svg xmlns="http://www.w3.org/2000/svg" viewBox="0 0 94.2 88.6"><title>advantage-2-illustration</title><path d="M87.2,22.4l-1.7,5.2a43,43,0,0,1-13,54.2,12.8,12.8,0,0,1,3.1,2.7A47.1,47.1,0,0,0,87.2,22.4Z" fill="#826550"/><path d="M9.5,70.3h1.3A43.1,43.1,0,0,1,66,8.4a22.3,22.3,0,0,1,2.4-3.3A47.1,47.1,0,0,0,6.2,70.5H9.5Z" fill="#826550"/><path d="M53.5,82c0.4-6.1-.9-14,0.7-19.1,4.5-.1,9.6.4,13.2-0.7,8.2-14.8,12-34,18.4-50.6V9C85,6,81.9,5.3,79.1,4.4H78.4C67.8,7.9,66.5,20.5,64,32.1,48.2,27.9,31.7,32,31.1,47.2c-4.5.1-8,1.2-9.9,3.9-0.6,6.7,1.6,10.7,6.6,11.8q-1.9,8-7.2,12.5c-6.4.6-15.6-1.6-19.1,2v2.6c3.2,3.9,12.9,1.2,19.1,2,6.6-3.9,8.5-12.6,11.8-19.7,4.7,0.4,10.9-.8,14.5.7V82.7c-7.8.5-15.4,1.2-19.1,5.9H72.5C69.3,83.3,60.1,84,53.5,82ZM37.7,47.2C38.4,35.5,53,35.5,63.3,38.6c0.1,4.7-.5,10.2,1.3,13.2C57.6,50.9,47.6,47.4,37.7,47.2Z" fill="#826550"/></svg>
