<svg xmlns="http://www.w3.org/2000/svg" viewBox="0 0 94.2 92"><title>advantage-3-illustration</title><circle cx="47.1" cy="17.3" r="9.1" fill="#826550"/><path d="M67.5 26.4H26.7a2.8 2.8 0 0 0-2.8 2.8v4.5a2.8 2.8 0 0 0 2.8 2.8h.8v45.4h-.8a2.8 2.8 0 0 0-2.8 2.8v4.5a2.8 2.8 0 0 0 2.8 2.8h40.8a2.8 2.8 0 0 0 2.8-2.8v-4.5a2.8 2.8 0 0 0-2.8-2.8h-.9V36.5h.8a2.8 2.8 0 0 0 2.8-2.8v-4.5a2.8 2.8 0 0 0-2.7-2.8zM33.7 36.5h13.2L33.7 49.7V36.5zm26.8 45.4H47l13.5-13.5v13.5zm0-28.7L33.7 80V64.9l26.8-26.8v15.1z" fill="#826550"/><path d="M47.1 0a47.1 47.1 0 0 0-28.2 84.8 7.8 7.8 0 0 1 1.2-4.1 43.1 43.1 0 1 1 54 0 7.8 7.8 0 0 1 1.2 4.1A47.1 47.1 0 0 0 47.1 0z" fill="#826550"/></svg>