<svg xmlns="http://www.w3.org/2000/svg" viewBox="0 0 94.2 92"><title>advantage-3-illustration</title><circle cx="47.1" cy="17.3" r="9.1" fill="#826550"/><path d="M67.5,26.4H26.7a2.8,2.8,0,0,0-2.8,2.8v4.5a2.8,2.8,0,0,0,2.8,2.8h0.8V81.9H26.7a2.8,2.8,0,0,0-2.8,2.8v4.5A2.8,2.8,0,0,0,26.7,92H67.5a2.8,2.8,0,0,0,2.8-2.8V84.7a2.8,2.8,0,0,0-2.8-2.8H66.6V36.5h0.8a2.8,2.8,0,0,0,2.8-2.8V29.2A2.8,2.8,0,0,0,67.5,26.4ZM33.7,36.5H46.9L33.7,49.7V36.5ZM60.5,81.9H47L60.5,68.4V81.9Zm0-28.7L33.7,80V64.9L60.5,38.1V53.2Z" fill="#826550"/><path d="M47.1,0A47.1,47.1,0,0,0,18.9,84.8h0a7.8,7.8,0,0,1,1.2-4.1,43.1,43.1,0,1,1,54,0,7.8,7.8,0,0,1,1.2,4.1h0A47.1,47.1,0,0,0,47.1,0Z" fill="#826550"/></svg>
