<svg xmlns="http://www.w3.org/2000/svg" width="51.5" height="49.5" viewBox="0 0 51.5 49.5"><path d="M50.8 0h-.2c-2.3 7.7-2.9 17.1-9.4 20.6-1.2-3.4-4.1-4.9-7.4-6.4s-4.5-2.6-6.6-2.6a2.2 2.2 0 0 0-1.5.3 2.2 2.2 0 0 0-1.5-.3c-2.1.1-4.5 1.7-6.6 2.6s-6.2 3-7.4 6.4C3.8 17 3.1 7.7.8 0H.6A14.5 14.5 0 0 0 0 2.4c0 1.9.5 21.5 1.9 28.4S8 41.6 12.7 44.6s8.5 4.8 13 4.8 9.7-2.8 13-4.8 9.6-7.5 10.8-13.8 1.9-26.5 1.9-28.4a14.5 14.5 0 0 0-.6-2.4zM36.9 28c-.2 1.6-1.7 3.4-3.4 3.5s-4.5-4.4-7.9-4.4-4.9 4.5-7.9 4.4-3.1-1.9-3.4-3.5a7.6 7.6 0 0 1 1.7-5.6c1.1-1.1 2.8-.9 4.7-1.2a8.6 8.6 0 0 0 4.9-1.9 8.6 8.6 0 0 0 4.9 1.9c1.9.3 3.6.1 4.7 1.2a7.6 7.6 0 0 1 1.7 5.6z" fill="#826550"/></svg>