<svg xmlns="http://www.w3.org/2000/svg" viewBox="0 0 51.5 49.5"><title>beard-1</title><path d="M76.6,24.8H76.4c-2.3,7.7-2.9,17.1-9.4,20.6-1.2-3.4-4.1-4.9-7.4-6.4s-4.5-2.6-6.6-2.6a2.2,2.2,0,0,0-1.5.3,2.2,2.2,0,0,0-1.5-.3c-2.1.1-4.5,1.7-6.6,2.6s-6.2,3-7.4,6.4c-6.4-3.6-7.1-12.9-9.4-20.6H26.4a14.5,14.5,0,0,0-.6,2.4c0,1.9.5,21.5,1.9,28.4s6.1,10.8,10.8,13.8,8.5,4.8,13,4.8,9.7-2.8,13-4.8,9.6-7.5,10.8-13.8,1.9-26.5,1.9-28.4A14.5,14.5,0,0,0,76.6,24.8ZM62.7,52.8c-0.2,1.6-1.7,3.4-3.4,3.5s-4.5-4.4-7.9-4.4-4.9,4.5-7.9,4.4-3.1-1.9-3.4-3.5a7.6,7.6,0,0,1,1.7-5.6c1.1-1.1,2.8-.9,4.7-1.2a8.6,8.6,0,0,0,4.9-1.9h0A8.6,8.6,0,0,0,56.3,46c1.9,0.3,3.6.1,4.7,1.2A7.6,7.6,0,0,1,62.7,52.8Z" transform="translate(-25.8 -24.8)"/></svg>