<svg xmlns="http://www.w3.org/2000/svg" width="57.7" height="68.6" viewBox="0 0 57.7 68.6"><path d="M51.6 22.2c.1-1.7.5-3.5.7-5.4.7-5.4 1.6-11.7-.1-16.8H52c-1.3 3.7-1.3 8.3-2.2 12.4a19.7 19.7 0 0 1-3.2 7.6 4.4 4.4 0 0 1-1.9 1.7c-.7-3.9-4.3-4.9-7.7-6.4s-4-2-6.1-2.2a10.8 10.8 0 0 0-2 .2 10.6 10.6 0 0 0-2-.2c-2.1.1-4 1.3-6.1 2.2s-7 2.4-7.7 6.4a4.4 4.4 0 0 1-1.9-1.8A19.7 19.7 0 0 1 8 12.3c-.9-4-.8-8.6-2.2-12.4h-.3C3.8 5 4.7 11.3 5.4 16.7c.2 1.9.6 3.7.7 5.4.8 11.1-7 23.1-6 28.9.9 7.5 8.4 9.4 14.2 12.4s8.3 5 13.3 5.2h2.6c5-.2 9-2.9 13.3-5.2s13.2-4.7 14.1-12.3c1-5.8-6.8-17.8-6-28.9zM28.9 26a35.9 35.9 0 0 1-7.2-.5c.7-2.1 4-1.6 7.1-1.6h.2c3 0 6.4-.5 7.1 1.6a36 36 0 0 1-7.2.5z" fill="#826550"/></svg>