<svg xmlns="http://www.w3.org/2000/svg" width="44.7" height="104.8" viewBox="0 0 44.7 104.8"><path d="M43.4 0h-.1c-2.8 21.5-5.4 22.6-7 22.7s-3.6-1.8-4.9-2.5a15.9 15.9 0 0 0-9.1-2.6 15.9 15.9 0 0 0-9.1 2.5c-1.3.7-3.5 2.6-4.9 2.5s-4.1-1.2-7-22.7C-.8 12.1-.3 50.1 2.5 63.5 5.1 82 12.6 98.6 15.9 103.1c.7 1 3.5 1.6 6.4 1.6s5.7-.5 6.4-1.6C32 98.6 39.5 82 42.1 63.5 45 50.2 45.5 12.2 43.4 0zM22.3 28.1a100.2 100.2 0 0 0-10.1.5c1.1-1.8 9-3.2 10.1-3.4s9 1.7 10.1 3.4a100.2 100.2 0 0 0-10.1-.5z" fill="#826550"/></svg>