<svg xmlns="http://www.w3.org/2000/svg" width="57" height="97.7" viewBox="0 0 57 97.7"><path d="M51.1 15.3c-.4-5.5-.6-10.9-2.5-15.2-.8 0-1.5 7.3-2.3 10.9-1.5 7.1-3.7 8.3-4.4 8.3-.9-3.9-4.4-4.2-7.8-5.9a11.1 11.1 0 0 0-3.6-1.2 14.6 14.6 0 0 0-2 .1 14.4 14.4 0 0 0-2-.1 11.1 11.1 0 0 0-3.6 1.2c-3.4 1.6-6.9 2-7.8 5.9-.7 0-3-1.1-4.4-8.3C10 7.4 9.2.1 8.4.1 6.5 4.5 6.3 9.9 5.9 15.3 5 38.8 0 51.6 0 62.5c0 26.1 11.7 35.3 28.5 35.3S57 88.6 57 62.5c0-10.9-5-23.7-5.9-47.2zM34.4 25c-2.8 1.2-5.4-.7-5.9-.7h-.1c-.5 0-3.1 1.9-5.9.7-.8-3.6 2.4-4 5.9-3.9s6.8.3 6 3.9z" fill="#826550"/></svg>