<svg xmlns="http://www.w3.org/2000/svg" viewBox="0 0 22.1 21.2"><title>beard-icon</title><path d="M21.8,0H21.7c-1,3.3-1.3,7.3-4,8.8-0.5-1.4-1.8-2.1-3.2-2.7A9.5,9.5,0,0,0,11.7,5a0.9,0.9,0,0,0-.6.1A0.9,0.9,0,0,0,10.4,5,9.5,9.5,0,0,0,7.6,6.1c-1.4.6-2.7,1.3-3.2,2.7C1.6,7.3,1.3,3.3.4,0H0.3A6.3,6.3,0,0,0,0,1,110.5,110.5,0,0,0,.8,13.2c0.5,2.7,2.6,4.6,4.6,5.9s3.6,2.1,5.6,2.1,4.2-1.2,5.6-2.1,4.1-3.2,4.6-5.9A110.3,110.3,0,0,0,22.1,1,6.1,6.1,0,0,0,21.8,0Zm-6,12a1.8,1.8,0,0,1-1.4,1.5c-1.3.1-1.9-1.9-3.4-1.9s-2.1,1.9-3.4,1.9A1.8,1.8,0,0,1,6.2,12a3.2,3.2,0,0,1,.7-2.4,3.5,3.5,0,0,1,2-.5A3.7,3.7,0,0,0,11,8.3h0a3.7,3.7,0,0,0,2.1.8,3.5,3.5,0,0,1,2,.5A3.2,3.2,0,0,1,15.8,12Z" fill="#010101"/></svg>