<svg xmlns="http://www.w3.org/2000/svg" width="57" height="97.7" viewBox="0 0 57 97.7">
	<g fill="#826550">
		<path d="M79.6,64.1c-0.4-5.5-.6-10.9-2.5-15.2-0.8,0-1.5,7.3-2.3,10.9-1.5,7.1-3.7,8.3-4.4,8.3-0.9-3.9-4.4-4.2-7.8-5.9A11.1,11.1,0,0,0,59,61a14.6,14.6,0,0,0-2,.1,14.4,14.4,0,0,0-2-.1,11.1,11.1,0,0,0-3.6,1.2c-3.4,1.6-6.9,2-7.8,5.9-0.7,0-3-1.1-4.4-8.3-0.7-3.6-1.5-10.9-2.3-10.9-1.9,4.4-2.1,9.8-2.5,15.2-0.9,23.5-5.9,36.3-5.9,47.2,0,26.1,11.7,35.3,28.5,35.3s28.5-9.2,28.5-35.3C85.5,100.4,80.5,87.6,79.6,64.1ZM62.9,73.8c-2.8,1.2-5.4-.7-5.9-0.7H56.9c-0.5,0-3.1,1.9-5.9.7-0.8-3.6,2.4-4,5.9-3.9S63.7,70.2,62.9,73.8Z" transform="translate(-28.5 -48.8)" />
	</g>
</svg>