<svg xmlns="http://www.w3.org/2000/svg" viewBox="0 0 44.7 104.8"><title>beard-5</title><path d="M66.3,52.4H66.2c-2.8,21.5-5.4,22.6-7,22.7s-3.6-1.8-4.9-2.5A15.9,15.9,0,0,0,45.2,70a15.9,15.9,0,0,0-9.1,2.5c-1.3.7-3.5,2.6-4.9,2.5s-4.1-1.2-7-22.7H24.2c-2.1,12.2-1.6,50.2,1.2,63.6,2.6,18.5,10.1,35.1,13.4,39.6,0.7,1,3.5,1.6,6.4,1.6s5.7-.5,6.4-1.6c3.3-4.5,10.8-21.1,13.4-39.6C67.9,102.6,68.4,64.6,66.3,52.4ZM45.2,80.5a100.2,100.2,0,0,0-10.1.5c1.1-1.8,9-3.2,10.1-3.4s9,1.7,10.1,3.4A100.2,100.2,0,0,0,45.2,80.5Z" transform="translate(-22.9 -52.4)"/></svg>