<svg xmlns="http://www.w3.org/2000/svg" width="62.4" height="78.5" viewBox="0 0 62.4 78.5"><path d="M62.4 42c0-5.2-2.4-7.8-3.6-10a56 56 0 0 1-4.2-17.6C54.5 9.5 52.9 2 51.7 0c-.9 0-1.5 7.8-2.3 11.6-1.4 7-3.8 8.9-4.4 9-.8-2.8-4.1-7.4-13.7-7.7h-.2c-9.6.4-12.9 4.9-13.7 7.7-.7-.1-3-2-4.4-9C12.2 7.7 11.6 0 10.7 0 9.5 2 7.9 9.5 7.8 14.4A56.1 56.1 0 0 1 3.6 32C2.4 34.2 0 36.7 0 42s5.2 7.2 5.6 11.4c.1 1.2 0 2.3.1 3.4 2 17.5 17.9 21.7 25.4 21.7 7.6 0 23.4-4.2 25.4-21.7.2-1 0-2.1.1-3.4.6-4.2 5.8-7.6 5.8-11.4zM33.2 26.8a20.6 20.6 0 0 0-4.1 0c-1.7.3-5.8 1-5.8-1.1s6.7-2.3 7.8-2.3 7.8 1.2 7.8 2.3-3.9 1.4-5.7 1.1z" fill="#826550"/></svg>