<svg xmlns="http://www.w3.org/2000/svg" width="57.7" height="68.6" viewBox="0 0 57.7 68.6">
	<g fill="#826550">
		<path d="M80.4,56.5c0.1-1.7.5-3.5,0.7-5.4,0.7-5.4,1.6-11.7-.1-16.8H80.8c-1.3,3.7-1.3,8.3-2.2,12.4a19.7,19.7,0,0,1-3.2,7.6A4.4,4.4,0,0,1,73.5,56c-0.7-3.9-4.3-4.9-7.7-6.4s-4-2-6.1-2.2a10.8,10.8,0,0,0-2,.2,10.6,10.6,0,0,0-2-.2c-2.1.1-4,1.3-6.1,2.2s-7,2.4-7.7,6.4A4.4,4.4,0,0,1,40,54.2a19.7,19.7,0,0,1-3.2-7.6c-0.9-4-.8-8.6-2.2-12.4H34.3c-1.7,5.1-.8,11.4-0.1,16.8,0.2,1.9.6,3.7,0.7,5.4,0.8,11.1-7,23.1-6,28.9,0.9,7.5,8.4,9.4,14.2,12.4s8.3,5,13.3,5.2H59c5-.2,9-2.9,13.3-5.2S85.5,93,86.4,85.4C87.4,79.6,79.6,67.6,80.4,56.5ZM57.7,60.3h0a35.9,35.9,0,0,1-7.2-.5c0.7-2.1,4-1.6,7.1-1.6h0.2c3,0,6.4-.5,7.1,1.6A36,36,0,0,1,57.7,60.3Z" transform="translate(-28.8 -34.3)" />
	</g>
</svg>