<svg xmlns="http://www.w3.org/2000/svg" viewBox="0 0 62.4 78.5"><title>beard-3</title><path d="M93.6,81.2c0-5.2-2.4-7.8-3.6-10a56,56,0,0,1-4.2-17.6c-0.1-4.9-1.7-12.4-2.9-14.4-0.9,0-1.5,7.8-2.3,11.6-1.4,7-3.8,8.9-4.4,9-0.8-2.8-4.1-7.4-13.7-7.7H62.3c-9.6.4-12.9,4.9-13.7,7.7-0.7-.1-3-2-4.4-9-0.8-3.9-1.4-11.6-2.3-11.6-1.2,2-2.8,9.5-2.9,14.4a56.1,56.1,0,0,1-4.2,17.6c-1.2,2.2-3.6,4.7-3.6,10s5.2,7.2,5.6,11.4c0.1,1.2,0,2.3.1,3.4,2,17.5,17.9,21.7,25.4,21.7h0c7.6,0,23.4-4.2,25.4-21.7,0.2-1,0-2.1.1-3.4C88.4,88.4,93.6,85,93.6,81.2ZM64.4,66a20.6,20.6,0,0,0-4.1,0c-1.7.3-5.8,1-5.8-1.1s6.7-2.3,7.8-2.3,7.8,1.2,7.8,2.3S66.2,66.3,64.4,66Z" transform="translate(-31.2 -39.2)"/></svg>