<svg xmlns="http://www.w3.org/2000/svg" viewBox="0 0 141.7 139.5"><title>clock illustration</title><path d="M419.8,710.5V690a1,1,0,0,0-2,0v20.5h2Z" transform="translate(-348 -689)" fill="#ffffff"/><path d="M393.8,717.4l1.7-1-10.2-17.7a1,1,0,0,0-1.7,1Z" transform="translate(-348 -689)" fill="#ffffff"/><path d="M358.5,723.7a1,1,0,0,0,.4,1.4l17.7,10.3,1-1.7-17.7-10.3A1,1,0,0,0,358.5,723.7Z" transform="translate(-348 -689)" fill="#ffffff"/><path d="M454.4,697.5a1,1,0,0,0-1.4.4l-10.8,18.6,1.7,1,10.8-18.6A1,1,0,0,0,454.4,697.5Z" transform="translate(-348 -689)" fill="#ffffff"/><path d="M479.8,724.7a1,1,0,1,0-1-1.7l-18.6,10.8,1,1.7Z" transform="translate(-348 -689)" fill="#ffffff"/><path d="M370.5,758.8c0-.3,0-0.7,0-1H349a1,1,0,1,0,0,2h21.5C370.5,759.4,370.5,759.1,370.5,758.8Z" transform="translate(-348 -689)" fill="#ffffff"/><path d="M488.7,757.8H467.1c0,0.3,0,.7,0,1s0,0.7,0,1h21.5A1,1,0,1,0,488.7,757.8Z" transform="translate(-348 -689)" fill="#ffffff"/><path d="M478.8,792.4l-17.7-10.3-1,1.7,17.7,10.3h0.5A1,1,0,0,0,478.8,792.4Z" transform="translate(-348 -689)" fill="#ffffff"/><path d="M357.9,792.9a1,1,0,0,0,.5,1.9h0.5l18.6-10.8-1-1.7Z" transform="translate(-348 -689)" fill="#ffffff"/><path d="M443.9,800.1l-1.7,1,10.2,17.7a1,1,0,0,0,.9.5h0.5a1,1,0,0,0,.4-1.4Z" transform="translate(-348 -689)" fill="#ffffff"/><path d="M382.9,818.7a1,1,0,0,0,.4,1.4h0.5a1,1,0,0,0,.9-0.5l10.8-18.6-1.7-1Z" transform="translate(-348 -689)" fill="#ffffff"/><path d="M417.8,807.1v20.5a1,1,0,0,0,2,0V807.1h-2Z" transform="translate(-348 -689)" fill="#ffffff"/><path d="M452.7,740.9a1.5,1.5,0,1,0-1.5-2.6l-28.4,16.4h0a5.7,5.7,0,0,0-7.9,0l-20.3-11.8a1.5,1.5,0,0,0-1.5,2.6l20.3,11.8a5.7,5.7,0,1,0,11,0Zm-29.4,14.5h0Zm0.4,0.6h0Zm-9.8,0h0Zm0.4-.6h0Zm4.5,6.2a2.7,2.7,0,1,1,2.7-2.7A2.7,2.7,0,0,1,418.8,761.4Z" transform="translate(-348 -689)" fill="#ffffff"/></svg>
