<svg xmlns="http://www.w3.org/2000/svg" width="15" height="17" viewBox="0 0 15 17"><path data-name="Locked 2" class="cls-1" d="M13 5.451A5.5 5.5 0 0 0 7.389 0a5.366 5.366 0 0 0-5.453 5.453h-.63A1 1 0 0 0 .048 6.532v9.05A1.048 1.048 0 0 0 1.187 17h12.568A1.382 1.382 0 0 0 15 15.58V6.97a1.343 1.343 0 0 0-1.247-1.532zm-1.187-.013a4.284 4.284 0 0 0-8.564 0h8.564zM7.168 7.473A2.01 2.01 0 0 1 9.13 9.527a2.054 2.054 0 0 1-1.263 1.919c-.1.041.661 3.541.661 3.541l-2.64.019a20.682 20.682 0 0 0 .647-3.535 2.05 2.05 0 0 1-1.328-1.944 2.009 2.009 0 0 1 1.965-2.054z"/></svg>