<svg xmlns="http://www.w3.org/2000/svg" viewBox="0 0 369.5 100.9"><title>logotype-tablet</title><path d="M119.9,11.4C127,9,127.6,0,120.5,0c-1.9,0-4.3,1.4-5.9,4.2L105,20.7a13.8,13.8,0,0,1-1.4,2c-2.5-3.4-1.7-8.5,1.7-10.7L104,10.3c-7.5,4.8-5.3,18.5,7.2,18.5C121.8,28.7,126.7,16,119.9,11.4ZM111.1,26a10.2,10.2,0,0,1-5.1-1.2,18.4,18.4,0,0,0,1.8-2.5l6-10.4h1C123,13.7,119.7,26,111.1,26Zm3.8-16.2,2.9-4.9c2.6-4.5,5.9-1.8,4.1,1.5S118.5,9.7,114.9,9.8Z" transform="translate(0)" fill="#fff"/><path d="M259.2,19l-0.2.3a16.7,16.7,0,0,1-6.5,5c0.6-.9,1-1.9,1.5-2.7l3.9-6.7c3.3-5.6-2.1-7.5-5.7-4.3l0.7-1.2h-3.6L243.8,19h0l-0.2.3a7.7,7.7,0,0,1-5.4,2.6l3.4-5.8c2.2-3.7.2-7.3-3.2-7.3s-4.9,1.1-6.9,4.7l-1.7,3L228.2,19l-0.2.2c-2.6,3-5.1,5.3-6.6,5.3s-1.2-.5-0.4-1.9l5.1-9c1.5-2.7.1-4.7-1.9-4.7s-3.2.9-5,2.7l5.7-9.9h-3.6L211.4,19l-0.2.2a22.1,22.1,0,0,1-4.3,3.9c1.1-3.4.9-8.6,3.1-13.1l-2.7-1.4c-1.5,2-4.7,6.7-7.9,10.4h0l-0.2.3c-2.6,3-5.1,5.3-6.6,5.3s-1.2-.5-0.4-1.9l3.6-6.2c1.2-2.2.6-3.4-.5-4.8l-2-2.4a1.4,1.4,0,0,1,.2-2.1l-1.8-2c-2,1.8-2.2,3.8-.9,5.5L191,11c-1.6,2.2-3.7,5.2-6,8l-0.2.3c-2.6,3-5.9,5.3-8.3,5.3s-3.5-1.4-1.8-4.2l0.3-.6c2.3,1,6.6.5,9.3-4.1l0.5-.9c1.9-3.3.1-5.7-2.8-5.7a7.5,7.5,0,0,0-6.7,4.1L171.7,19l-0.2.2a7.6,7.6,0,0,1-5.4,2.6l3.4-5.8a8.7,8.7,0,0,0,1.3-4.1,3,3,0,0,0-3.2-3.2,4.1,4.1,0,0,0-2.3.8l4.5-7.8h-3.6L156.2,19l-0.2.2c-2.6,3-5.1,5.3-6.6,5.3s-1.2-.5-0.4-1.9l3.6-6.2c1.2-2.2.6-3.4-.5-4.8l-2-2.4a1.4,1.4,0,0,1,.2-2.1l-1.8-2c-2,1.8-2.2,3.8-.9,5.5l0.3,0.4c-1.6,2.2-3.7,5.2-6,8l-0.2.3c-2.6,3-5.1,5.3-6.6,5.3s-1.2-.5-0.4-1.9l5.7-10.1h-2A3.7,3.7,0,0,0,134.4,9c-1.9,0-4.6,1.5-6.1,4.1l-5,8.6c-1.5,2.6-.4,5.1,2.4,5.1s3.2-.9,4.9-2.3c0.2,1.4,1.3,2.3,3.1,2.3s6.3-3.1,9.3-6.6h0c1.7-2,3-3.8,5.9-7.6l0.5,0.6a1.7,1.7,0,0,1,.2,2l-3.8,6.5c-1.5,2.6-.4,5.1,2.4,5.1s4.3-1.5,6.5-3.7h0c0,2.4,1.8,3.8,4.1,3.8a7.9,7.9,0,0,0,6.1-3.3h0.8a10.4,10.4,0,0,0,4.7-1.4c-0.2,2.6,1.7,4.5,4.8,4.5s8-3.1,11-6.6,3-3.8,5.9-7.6l0.5,0.6a1.7,1.7,0,0,1,.2,2l-3.8,6.5c-1.5,2.6-.4,5.1,2.4,5.1s6.3-3.1,9.3-6.6h0c2-2.3,3.8-4.8,5.1-6.5-1.4,3.7-.6,10.3-4,10.3a2,2,0,0,1-1.7-1.3l-2.2,1.2a3.9,3.9,0,0,0,3.9,2.9h1.1a12.5,12.5,0,0,0,5.5-2.4l-1.2,2.1h3.6l5.4-9.4c5.5-6.9,7.9-6,6.4-3.4l-4.6,8c-1.5,2.6-.4,5.1,2.4,5.1s4.4-1.6,6.6-3.7c0,4.5,6.3,5.4,10.1.6h0.8a9.8,9.8,0,0,0,3.8-.9l-6.5,11.2h3.6l10.6-18.5c4-5.4,6.5-3.4,5.5-1.8l-5.4,9.3a1.4,1.4,0,0,1-2.6,0l-2,1a3.9,3.9,0,0,0,3.9,2.9h0.2c5.2-.1,8.6-3.2,11.5-6.6A2.2,2.2,0,0,0,259.2,19Zm-81-5c2.1-3.5,5.7-2.9,3.6.8l-0.5.9c-1.7,2.9-4,2.8-5.3,2.4Zm-45.6,5.6c-2.2,3.4-4.3,5-5.7,5s-1.2-.5-0.4-1.9l5-8.7c1.9-3.3,5.7-2.5,4,.8Zm26.8,4.9a1.3,1.3,0,0,1-1.4-1.4,4,4,0,0,1,.6-1.8l1.3-2.2a5.2,5.2,0,0,0,2.3,3.7A3.3,3.3,0,0,1,159.4,24.4Zm3.7-3.5a3.8,3.8,0,0,1-1.5-3.2c0-2.5,2.5-6.7,4.5-6.7a1.4,1.4,0,0,1,1.3,1.5,4.3,4.3,0,0,1-.7,2.1Zm73.1-1.8H236a2.1,2.1,0,0,0-2.1,2.1,2.3,2.3,0,0,0,.3,1.2h0c-1.7,2.9-5.7,2.3-3.6-1.4l2.7-4.7,1.7-2.9c2.5-4.2,5.9-2.6,3.8,1.1Z" transform="translate(0)" fill="#fff"/><rect x="1.7" y="69.2" width="8.1" height="8.08" transform="translate(-50.1 25.5) rotate(-45)" fill="#fff"/><rect x="353.7" y="69.2" width="8.1" height="8.08" transform="translate(52.9 274.3) rotate(-45)" fill="#fff"/><polygon points="46.8 73.5 48.9 73.5 48.9 65.2 52.2 65.2 52.2 63.1 46.8 63.1 46.8 73.5" fill="#636466"/><path d="M61.7,75V62.3a4.6,4.6,0,0,0-2.6-4.1,4.5,4.5,0,0,1,.5,2V72.9a4.5,4.5,0,0,1-1.7,3.5,5.2,5.2,0,0,1,1.7,3.7V94.2a4.6,4.6,0,0,1-4.6,4.6H41.5v2.1H57.1a4.6,4.6,0,0,0,4.6-4.6V82.2A5.2,5.2,0,0,0,60,78.5,4.5,4.5,0,0,0,61.7,75Z" transform="translate(0)" fill="#636466"/><polygon points="46.8 91.3 48.9 91.3 48.9 83 52.2 83 52.2 80.9 46.8 80.9 46.8 91.3" fill="#636466"/><polygon points="79.8 91.3 81.9 91.3 81.9 65.2 85.2 65.2 85.2 63.1 79.8 63.1 79.8 91.3" fill="#636466"/><path d="M92.1,58.3a4.5,4.5,0,0,1,.5,2v34a4.6,4.6,0,0,1-4.6,4.6H77a4.5,4.5,0,0,1-2-.5,4.6,4.6,0,0,0,4.1,2.6H90.1a4.6,4.6,0,0,0,4.6-4.6v-34A4.6,4.6,0,0,0,92.1,58.3Z" transform="translate(0)" fill="#636466"/><polygon points="112.8 73.5 114.9 73.5 114.9 65.2 118.2 65.2 118.2 63.1 112.8 63.1 112.8 73.5" fill="#636466"/><path d="M125.1,82.5a4.5,4.5,0,0,0,2.6-4.1V62.3a4.6,4.6,0,0,0-2.6-4.1,4.5,4.5,0,0,1,.5,2V76.4a4.5,4.5,0,0,1-2.6,4.1l3.1,18.4h-5.7l0.4,2.1h7.4Z" transform="translate(0)" fill="#636466"/><polygon points="115.6 80.9 112.8 80.9 112.8 98.8 107.5 98.8 107.5 100.9 114.9 100.9 114.9 83 116 83 115.6 80.9" fill="#636466"/><polygon points="144.8 91.3 146.9 91.3 146.9 65.2 150.2 65.2 150.2 63.1 144.8 63.1 144.8 91.3" fill="#636466"/><path d="M157.2,58.3a4.4,4.4,0,0,1,.5,2v34a4.6,4.6,0,0,1-4.6,4.6H142a4.5,4.5,0,0,1-2-.5,4.6,4.6,0,0,0,4.1,2.6h11.1a4.6,4.6,0,0,0,4.6-4.6v-34A4.6,4.6,0,0,0,157.2,58.3Z" transform="translate(0)" fill="#636466"/><polygon points="177.9 91.3 179.9 91.3 179.9 65.2 183.2 65.2 183.2 63.1 177.9 63.1 177.9 91.3" fill="#636466"/><path d="M190.2,58.3a4.5,4.5,0,0,1,.5,2v34a4.6,4.6,0,0,1-4.6,4.6H172.6v2.1h15.6a4.6,4.6,0,0,0,4.6-4.6v-34A4.6,4.6,0,0,0,190.2,58.3Z" transform="translate(0)" fill="#636466"/><polygon points="211.2 57.8 211.2 98.8 205.9 98.8 205.9 100.9 213.3 100.9 213.3 57.8 211.2 57.8" fill="#636466"/><polygon points="244.1 57.8 244.1 98.8 238.2 98.8 238.8 100.9 246.2 100.9 246.2 57.8 244.1 57.8" fill="#636466"/><polygon points="231.3 79.9 231.3 98.8 226 98.8 226 100.9 233.4 100.9 233.4 87.2 231.3 79.9" fill="#636466"/><path d="M263.6,83h6.1V80.9h-8.2a4.5,4.5,0,0,1-2-.5A4.5,4.5,0,0,0,263.6,83Z" transform="translate(0)" fill="#636466"/><polygon points="266.4 85.7 264.3 86.2 264.3 91.3 266.4 91.3 266.4 85.7" fill="#636466"/><path d="M276.7,58.3a4.5,4.5,0,0,1,.5,2V69l-5.4,1.2v2.6l7.5-1.7V62.3A4.6,4.6,0,0,0,276.7,58.3Z" transform="translate(0)" fill="#636466"/><path d="M276.7,76.1a4.5,4.5,0,0,1,.5,2V94.2a4.6,4.6,0,0,1-4.6,4.6H261.5a4.5,4.5,0,0,1-2-.5,4.6,4.6,0,0,0,4.1,2.6h11.1a4.6,4.6,0,0,0,4.6-4.6V80.1A4.6,4.6,0,0,0,276.7,76.1Z" transform="translate(0)" fill="#636466"/><polygon points="264.3 63.1 264.3 73.5 266.4 73.5 266.4 65.2 269.7 65.2 269.7 63.1 264.3 63.1" fill="#636466"/><polygon points="298 80.9 297.3 80.9 297.3 98.8 292 98.8 292 100.9 299.4 100.9 299.4 85.4 298 80.9" fill="#636466"/><polygon points="313.2 57.8 310.4 57.8 304.2 77.2 311.1 98.8 305.1 98.8 305.6 100.6 305.7 100.9 313.2 100.9 306.3 79.3 313.2 57.8" fill="#636466"/><polygon points="330.5 57.8 330.5 98.8 325.2 98.8 325.2 100.9 332.6 100.9 332.6 57.8 330.5 57.8" fill="#636466"/><rect x="361.5" y="79.6" width="8.1" height="2.95" transform="translate(49.7 282.3) rotate(-45)" fill="#636466"/><rect x="9.5" y="79.7" width="8.1" height="2.95" transform="translate(-53.4 33.4) rotate(-45)" fill="#636466"/><path d="M55.6,69A4.5,4.5,0,0,1,54,72.5a5.2,5.2,0,0,1,1.7,3.7V90.3a4.6,4.6,0,0,1-4.6,4.6H35.5V51.7H51.1a4.6,4.6,0,0,1,4.6,4.6V69h0Zm-7.5-9.9H42.8V69.5h5.4V59.1Zm0,17.8H42.8V87.4h5.4V76.9Z" transform="translate(0)" fill="#fff"/><path d="M84.1,51.7a4.6,4.6,0,0,1,4.6,4.6v34a4.6,4.6,0,0,1-4.6,4.6H73a4.6,4.6,0,0,1-4.6-4.6v-34A4.5,4.5,0,0,1,73,51.7H84.1Zm-2.9,7.4H75.9V87.4h5.4V59.1Z" transform="translate(0)" fill="#fff"/><path d="M114.7,94.8l-3-17.9h-2.8V94.8h-7.4V51.7h15.6a4.5,4.5,0,0,1,4.5,4.6V72.4a4.5,4.5,0,0,1-2.6,4.1l3.1,18.4h-7.4Zm-0.5-35.7h-5.4V69.5h5.4V59.1Z" transform="translate(0)" fill="#fff"/><path d="M149.1,51.7a4.6,4.6,0,0,1,4.6,4.6v34a4.6,4.6,0,0,1-4.6,4.6H138.1a4.6,4.6,0,0,1-4.6-4.6v-34a4.5,4.5,0,0,1,4.6-4.6h11.1Zm-2.9,7.4h-5.4V87.4h5.4V59.1Z" transform="translate(0)" fill="#fff"/><path d="M182.2,51.7a4.6,4.6,0,0,1,4.6,4.6v34a4.6,4.6,0,0,1-4.6,4.6H166.5V51.7h15.6Zm-2.9,7.4h-5.4V87.4h5.4V59.1Z" transform="translate(0)" fill="#fff"/><path d="M199.9,51.7h7.4V94.8h-7.4V51.7Z" transform="translate(0)" fill="#fff"/><path d="M240.2,51.7V94.8h-7.4L227.4,76V94.8H220V51.7h7.3l5.4,17.7V51.7h7.5Z" transform="translate(0)" fill="#fff"/><path d="M268.6,69.5a4.6,4.6,0,0,1,4.6,4.6V90.3a4.6,4.6,0,0,1-4.6,4.6H257.5a4.6,4.6,0,0,1-4.6-4.6V81.4l7.4-1.7v7.7h5.4V76.9h-8.2a4.5,4.5,0,0,1-4.6-4.6V56.3a4.5,4.5,0,0,1,4.6-4.6h11.1a4.6,4.6,0,0,1,4.6,4.6V65l-7.5,1.7V59.1h-5.4V69.5h8.3Z" transform="translate(0)" fill="#fff"/><path d="M300.2,73.2l6.9,21.6h-7.5V94.6l-5.5-17.7h-0.7V94.8H286V51.7h7.4V69.5h0.6l5.7-17.8h7.5Z" transform="translate(0)" fill="#fff"/><path d="M319.2,51.7h7.4V94.8h-7.4V51.7Z" transform="translate(0)" fill="#fff"/></svg>