<svg xmlns="http://www.w3.org/2000/svg" viewBox="0 0 225.8 30"><title>logotype-mobile</title><rect x="1" y="10.7" width="4.9" height="4.94" transform="translate(-8.3 6.3) rotate(-45)" fill="#fff"/><rect x="216.1" y="10.7" width="4.9" height="4.94" transform="translate(54.7 158.4) rotate(-45)" fill="#fff"/><polygon points="28.6 13.3 29.9 13.3 29.9 8.2 31.9 8.2 31.9 6.9 28.6 6.9 28.6 13.3" fill="#636466"/><path d="M37.7,14.2V6.5A2.8,2.8,0,0,0,36.1,4a2.7,2.7,0,0,1,.3,1.2V13a2.7,2.7,0,0,1-1,2.1,3.2,3.2,0,0,1,1,2.3V26a2.8,2.8,0,0,1-2.8,2.8H25.4V30h9.6a2.8,2.8,0,0,0,2.8-2.8V18.6a3.2,3.2,0,0,0-1-2.3A2.7,2.7,0,0,0,37.7,14.2Z" transform="translate(0)" fill="#636466"/><polygon points="28.6 24.2 29.9 24.2 29.9 19.1 31.9 19.1 31.9 17.8 28.6 17.8 28.6 24.2" fill="#636466"/><polygon points="48.8 24.2 50.1 24.2 50.1 8.2 52.1 8.2 52.1 6.9 48.8 6.9 48.8 24.2" fill="#636466"/><path d="M56.3,4a2.7,2.7,0,0,1,.3,1.2V26a2.8,2.8,0,0,1-2.8,2.8H47a2.7,2.7,0,0,1-1.2-.3A2.8,2.8,0,0,0,48.3,30h6.8a2.8,2.8,0,0,0,2.8-2.8V6.5A2.8,2.8,0,0,0,56.3,4Z" transform="translate(0)" fill="#636466"/><polygon points="69 13.3 70.2 13.3 70.2 8.2 72.2 8.2 72.2 6.9 69 6.9 69 13.3" fill="#636466"/><path d="M76.4,18.8A2.7,2.7,0,0,0,78,16.3V6.5A2.8,2.8,0,0,0,76.5,4a2.8,2.8,0,0,1,.3,1.2v9.9a2.7,2.7,0,0,1-1.6,2.5L77,28.8H73.6L73.8,30h4.5Z" transform="translate(0)" fill="#636466"/><polygon points="70.7 17.8 69 17.8 69 28.8 65.7 28.8 65.7 30 70.2 30 70.2 19.1 70.9 19.1 70.7 17.8" fill="#636466"/><polygon points="88.5 24.2 89.8 24.2 89.8 8.2 91.8 8.2 91.8 6.9 88.5 6.9 88.5 24.2" fill="#636466"/><path d="M96.1,4a2.7,2.7,0,0,1,.3,1.2V26a2.8,2.8,0,0,1-2.8,2.8H86.8a2.7,2.7,0,0,1-1.2-.3A2.8,2.8,0,0,0,88.1,30h6.8a2.8,2.8,0,0,0,2.8-2.8V6.5A2.8,2.8,0,0,0,96.1,4Z" transform="translate(0)" fill="#636466"/><polygon points="108.7 24.2 110 24.2 110 8.2 112 8.2 112 6.9 108.7 6.9 108.7 24.2" fill="#636466"/><path d="M116.2,4a2.7,2.7,0,0,1,.3,1.2V26a2.8,2.8,0,0,1-2.8,2.8h-8.3V30H115a2.8,2.8,0,0,0,2.8-2.8V6.5A2.8,2.8,0,0,0,116.2,4Z" transform="translate(0)" fill="#636466"/><polygon points="129.1 3.7 129.1 28.8 125.9 28.8 125.9 30 130.4 30 130.4 3.7 129.1 3.7" fill="#636466"/><polygon points="149.2 3.7 149.2 28.8 145.6 28.8 146 30 150.5 30 150.5 3.7 149.2 3.7" fill="#636466"/><polygon points="141.4 17.2 141.4 28.8 138.1 28.8 138.1 30 142.6 30 142.6 21.7 141.4 17.2" fill="#636466"/><path d="M161.1,19.1h3.7V17.8h-5a2.7,2.7,0,0,1-1.2-.3A2.8,2.8,0,0,0,161.1,19.1Z" transform="translate(0)" fill="#636466"/><polygon points="162.8 20.8 161.6 21.1 161.6 24.2 162.8 24.2 162.8 20.8" fill="#636466"/><path d="M169.1,4a2.7,2.7,0,0,1,.3,1.2v5.3l-3.3.8v1.6l4.6-1.1V6.5A2.8,2.8,0,0,0,169.1,4Z" transform="translate(0)" fill="#636466"/><path d="M169.1,14.9a2.7,2.7,0,0,1,.3,1.2V26a2.8,2.8,0,0,1-2.8,2.8h-6.8a2.7,2.7,0,0,1-1.2-.3,2.8,2.8,0,0,0,2.5,1.6h6.8a2.8,2.8,0,0,0,2.8-2.8V17.4A2.8,2.8,0,0,0,169.1,14.9Z" transform="translate(0)" fill="#636466"/><polygon points="161.6 6.9 161.6 13.3 162.8 13.3 162.8 8.2 164.8 8.2 164.8 6.9 161.6 6.9" fill="#636466"/><polygon points="182.1 17.8 181.7 17.8 181.7 28.8 178.5 28.8 178.5 30 183 30 183 20.6 182.1 17.8" fill="#636466"/><polygon points="191.4 3.7 189.7 3.7 185.9 15.6 190.1 28.8 186.5 28.8 186.8 29.9 186.8 30 191.4 30 187.2 16.8 191.4 3.7" fill="#636466"/><polygon points="202 3.7 202 28.8 198.8 28.8 198.8 30 203.3 30 203.3 3.7 202 3.7" fill="#636466"/><rect x="221" y="17.1" width="4.9" height="1.8" transform="translate(52.8 163.3) rotate(-45)" fill="#636466"/><rect x="5.8" y="17.1" width="4.9" height="1.8" transform="translate(-10.3 11.1) rotate(-45)" fill="#636466"/><path d="M34,10.5a2.7,2.7,0,0,1-1,2.1,3.2,3.2,0,0,1,1,2.3v8.6a2.8,2.8,0,0,1-2.8,2.8H21.7V0h9.6A2.8,2.8,0,0,1,34,2.8v7.8Zm-4.6-6H26.2v6.4h3.3V4.5Zm0,10.9H26.2v6.4h3.3V15.4Z" transform="translate(0)" fill="#fff"/><path d="M51.4,0a2.8,2.8,0,0,1,2.8,2.8V23.6a2.8,2.8,0,0,1-2.8,2.8H44.6a2.8,2.8,0,0,1-2.8-2.8V2.8A2.8,2.8,0,0,1,44.6,0h6.8ZM49.6,4.5H46.4V21.8h3.3V4.5Z" transform="translate(0)" fill="#fff"/><path d="M70.1,26.3l-1.8-11H66.5v11H62V0h9.6a2.8,2.8,0,0,1,2.7,2.8v9.9a2.7,2.7,0,0,1-1.6,2.5l1.9,11.2H70.1ZM69.8,4.5H66.5v6.4h3.3V4.5Z" transform="translate(0)" fill="#fff"/><path d="M91.2,0a2.8,2.8,0,0,1,2.8,2.8V23.6a2.8,2.8,0,0,1-2.8,2.8H84.4a2.8,2.8,0,0,1-2.8-2.8V2.8A2.8,2.8,0,0,1,84.4,0h6.8ZM89.4,4.5H86.1V21.8h3.3V4.5Z" transform="translate(0)" fill="#fff"/><path d="M111.3,0a2.8,2.8,0,0,1,2.8,2.8V23.6a2.8,2.8,0,0,1-2.8,2.8h-9.6V0h9.6Zm-1.8,4.5h-3.3V21.8h3.3V4.5Z" transform="translate(0)" fill="#fff"/><path d="M122.2,0h4.5V26.3h-4.5V0Z" transform="translate(0)" fill="#fff"/><path d="M146.8,0V26.3h-4.5L139,14.8V26.3h-4.5V0h4.5l3.3,10.8V0h4.6Z" transform="translate(0)" fill="#fff"/><path d="M164.2,10.9a2.8,2.8,0,0,1,2.8,2.8v9.9a2.8,2.8,0,0,1-2.8,2.8h-6.8a2.8,2.8,0,0,1-2.8-2.8V18.1l4.5-1.1v4.7h3.3V15.4h-5a2.8,2.8,0,0,1-2.8-2.8V2.8A2.8,2.8,0,0,1,157.4,0h6.8A2.8,2.8,0,0,1,167,2.8V8.1l-4.6,1.1V4.5h-3.3v6.4h5Z" transform="translate(0)" fill="#fff"/><path d="M183.5,13.1l4.2,13.2h-4.6V26.2l-3.4-10.8h-0.4v11h-4.5V0h4.5V10.9h0.3L183.1,0h4.6Z" transform="translate(0)" fill="#fff"/><path d="M195.1,0h4.5V26.3h-4.5V0Z" transform="translate(0)" fill="#fff"/></svg>