<svg xmlns="http://www.w3.org/2000/svg" width="14.969" height="15" viewBox="0 0 14.969 15"><path data-name="User copy 2" class="cls-1" d="M6.837.227a1.577 1.577 0 0 0-.721.269 1.75 1.75 0 0 0-.786.046 1.83 1.83 0 0 0-1.18 1.619c-.04.394-.05 1.5-.023 2.1.08.356-.2.356-.2.356-.5-.033-.278 1.516-.278 1.516a.814.814 0 0 0 .722.866 3.173 3.173 0 0 0 1.286 1.526s0 .616.018 1.072c-.076-.037.26 1.165-2.062 1.5s-2.766 1.077-3.2 1.489-.421 2.41-.421 2.41L14.969 15s-.112-2-.549-2.417-.915-1.152-3.236-1.489c-2.257-.321-1.886-1.507-1.9-1.578 0-.179.028-.941.028-.941a3.91 3.91 0 0 0 1.145-1.61 1.322 1.322 0 0 0 .866-.8s.165-1.564-.364-1.556c0 0-.251.08-.171-.275a9.608 9.608 0 0 0 .014-1.86c-.041-.395.02-1.523-.822-1.681a5.162 5.162 0 0 0-.931-.041c-.281-.039-.615-.755-1.137-.755z"/></svg>